<svg xmlns="http://www.w3.org/2000/svg" viewBox="0 0 396.52 85.19"><defs><style>.cls-1{fill:#f06078;}</style></defs><g id="Capa_2" data-name="Capa 2"><g id="Capa_1-2" data-name="Capa 1"><path id="Unión_23" data-name="Unión 23" class="cls-1" d="M340.3,55.21c0-18.09,13.46-29.64,28.05-29.64,17.42,0,28.17,10.75,28.17,28.85a35,35,0,0,1-.34,5.32H357c.34,6.33,6.11,10.86,12.78,10.86,6.22,0,9.73-2.94,11.31-7.36l14.37,4.08c-2.71,9.73-11.65,17.87-25.9,17.87C354.1,85.19,340.3,74.1,340.3,55.21Zm17.08-6.56h22.51c-.23-4.3-3.16-9.51-11.31-9.51C361.34,39.15,357.72,44.46,357.38,48.65ZM101.59,55.21c0-18.09,13.46-29.64,28-29.64,17.43,0,28.17,10.75,28.17,28.85a36.37,36.37,0,0,1-.33,5.32H118.33c.34,6.33,6.11,10.86,12.79,10.86,6.22,0,9.72-2.94,11.31-7.36l14.37,4.08c-2.72,9.73-11.66,17.87-25.91,17.87C115.39,85.19,101.59,74.1,101.59,55.21Zm17.08-6.56h22.51c-.23-4.3-3.17-9.51-11.31-9.51C122.63,39.15,119,44.46,118.67,48.65ZM164.38,68c0-9.95,7.35-15.61,16.62-17l13.24-2c3-.46,4.07-1.93,4.07-3.85,0-3.28-2.83-6.11-8.26-6.11-6,0-9.27,4.07-9.62,8.26L165.5,44.23c.68-8,8.14-18.66,24.66-18.66,18.22,0,24.89,10.18,24.89,21.72V74.78a55.19,55.19,0,0,0,.68,8.71h-15.5a27.51,27.51,0,0,1-.56-6.34c-2.94,4.75-8.37,7.92-15.84,7.92-12.32,0-19.45-8.14-19.45-17.08Zm23.3-7.35c-3.62.56-6.34,2.26-6.34,6.22,0,2.94,1.93,5.77,6.68,5.77,5.09,0,10.29-2.49,10.29-11.2h0V58.94Zm99.55,22.85V68.33L312,42h-24.1V27.26h46V41.41L308.05,68.67h26.36V83.49Zm-27.6,0V27.26h17.2V83.49Zm-236.1,0-13-41.57H0V27.26H23.21a.74.74,0,0,1,.7.53l9.24,32.73L44.23,27.26H62.44l11,33.38,9.39-33.38H99.67L82.24,83.49H65.16L52.94,47.18,41,83.49Zm204.87,0V1.59h17.2v81.9Zm29.76-73.31v-.11a10.07,10.07,0,1,1,10.18,10.07h-.12a10.08,10.08,0,0,1-10.06-10Z"/></g></g></svg>